<svg width="48" height="48" viewBox="0 0 48 48" fill="none" xmlns="http://www.w3.org/2000/svg">
<path d="M30.6296 16.2337C30.1758 15.99 16.8108 15.78 16.4958 16.2337C16.2108 16.6462 16.3721 18.81 16.4808 19.0687C16.6758 19.5187 20.9696 21.2625 20.9696 21.2625V22.3462C20.9696 22.3462 21.2621 22.4662 23.7671 22.4662C26.2721 22.4662 26.7708 22.3387 26.7708 22.3387L26.7896 21.2962C26.7896 21.2962 30.5171 19.3762 30.7121 19.11C30.8846 18.8887 31.0833 16.4775 30.6296 16.2337ZM26.7521 19.6612C26.7521 19.6612 26.8046 19.1437 26.5458 19.0162C26.2871 18.885 21.8133 18.9075 21.4608 18.9262C21.1083 18.945 21.1083 19.575 21.1083 19.575L18.3071 18.0937L18.2583 17.5987L28.7358 17.655L28.7583 18.3225L26.7521 19.6612Z" fill="#FCC11A"/>
<path d="M10.9922 34.5337C10.9922 43.5187 19.1334 47.2575 24.5372 47.0962C30.8334 46.9087 37.6059 42.1312 37.0472 33.5587C36.5222 25.515 29.6634 21.675 23.7459 21.72C16.8684 21.7687 10.9922 26.685 10.9922 34.5337Z" fill="#F8932A"/>
<path d="M24.1942 45.4838C24.1004 45.4838 24.0029 45.4838 23.9092 45.48C21.0967 45.3863 18.2392 44.325 16.2067 42.3563C14.0317 40.2488 12.6892 37.5825 12.6817 34.5188C12.6629 26.4713 19.5592 23.5125 23.9954 23.5125H24.0329C30.0442 23.5388 35.2379 28.0313 35.3729 34.365C35.4329 37.185 34.2779 40.17 32.0129 42.3975C29.9017 44.4713 26.7854 45.4838 24.1942 45.4838Z" fill="#FCC11A"/>
<path d="M23.92 41.3C22.8933 41.3 21.9133 41.18 20.98 40.94C20.0467 40.7 19.28 40.3733 18.68 39.96C18.5333 39.8667 18.46 39.7467 18.46 39.6C18.46 39.5067 18.5067 39.3667 18.6 39.18L19.46 37.7C19.5533 37.5267 19.66 37.44 19.78 37.44C19.8867 37.44 20.0267 37.4933 20.2 37.6C21.1733 38.16 22.3333 38.44 23.68 38.44C24.48 38.44 25.1 38.2667 25.54 37.92C25.9933 37.5733 26.22 37.06 26.22 36.38C26.22 35.6333 26.0333 35.1133 25.66 34.82C25.2867 34.5133 24.7467 34.36 24.04 34.36C23.6133 34.36 23.1933 34.4 22.78 34.48C22.3667 34.5467 22.02 34.64 21.74 34.76C21.4067 34.88 21.0533 34.94 20.68 34.94C20.16 34.94 19.7333 34.8067 19.4 34.54C19.0667 34.2733 18.9133 33.8867 18.94 33.38L19.26 28.3C19.2867 27.9933 19.3667 27.7667 19.5 27.62C19.6467 27.4733 19.9067 27.4 20.28 27.4H28.6C28.9733 27.4 29.2267 27.48 29.36 27.64C29.5067 27.7867 29.58 28.04 29.58 28.4V29.34C29.58 29.7 29.5067 29.96 29.36 30.12C29.2267 30.2667 28.9733 30.34 28.6 30.34H22.54L22.44 31.96C22.7067 31.8933 23.06 31.84 23.5 31.8C23.94 31.7467 24.3333 31.72 24.68 31.72C26.4533 31.72 27.8267 32.08 28.8 32.8C29.7733 33.52 30.26 34.7133 30.26 36.38C30.26 37.3933 29.9867 38.2733 29.44 39.02C28.9067 39.7533 28.16 40.32 27.2 40.72C26.24 41.1067 25.1467 41.3 23.92 41.3Z" fill="#F8932A"/>
</svg>
