<svg width="48" height="48" viewBox="0 0 48 48" fill="none" xmlns="http://www.w3.org/2000/svg">
<g id="noto:2nd-place-medal">
<path id="Vector" d="M30.6296 16.2337C30.1758 15.99 16.8108 15.78 16.4958 16.2337C16.2108 16.6462 16.3721 18.81 16.4808 19.0687C16.6758 19.5187 20.9921 21.48 20.9921 21.48L20.9096 22.3725C20.9096 22.3725 21.2621 22.4625 23.7708 22.4625C26.2796 22.4625 26.7746 22.335 26.7746 22.335L26.7821 21.5287C26.7821 21.5287 30.6671 19.6387 30.8621 19.3762C31.0271 19.1587 31.0833 16.4775 30.6296 16.2337ZM26.6508 19.6537C26.6508 19.6537 26.7746 19.1025 26.5158 18.975C26.2571 18.8437 21.8171 18.9037 21.4646 18.9225C21.1121 18.9412 21.1121 19.5712 21.1121 19.5712L18.2621 17.8725V17.595L28.8746 17.67L28.8933 17.985L26.6508 19.6537Z" fill="#9B9B9D"/>
<path id="Vector_2" d="M10.8633 34.4588C10.8633 43.4438 19.132 47.2575 24.5358 47.0963C30.832 46.9088 37.477 42.1313 37.0458 33.5588C36.637 25.4363 29.7483 21.825 23.8308 21.8663C16.9533 21.9188 10.8633 26.61 10.8633 34.4588Z" fill="#CECDD2"/>
<path id="Vector_3" d="M24.1989 45.4237C24.1051 45.4237 24.0076 45.4237 23.9139 45.42C21.1014 45.3262 18.3226 44.1412 16.2901 42.1725C14.1151 40.065 12.9226 37.215 12.9376 34.1512C12.9714 26.67 19.5114 23.2012 23.9476 23.2012H23.9851C29.9964 23.2275 34.9314 27.9 35.0701 34.2337C35.1301 37.0537 33.9751 40.0125 31.7101 42.24C29.5951 44.3137 26.7901 45.4237 24.1989 45.4237ZM23.9401 24.4462C19.9614 24.4462 14.0776 27.7012 14.0626 34.1512C14.0514 38.9737 17.7864 43.9312 24.0076 44.1412C26.3776 44.2162 28.8189 43.3087 30.7914 41.37C32.8389 39.3562 33.9901 36.7612 33.9489 34.2487C33.8514 28.8 29.3964 24.465 23.9889 24.4387C23.9814 24.4387 23.9514 24.4462 23.9401 24.4462Z" fill="#9B9B9D"/>
<path id="Vector_4" d="M21.3187 32.3812C21.7087 32.385 22.0575 31.8562 22.38 31.5337C23.0662 30.8437 23.7862 30.2962 24.6075 31.0387C26.625 32.8725 22.575 34.7325 21.0375 37.275C19.89 39.1725 19.6575 40.6312 19.9762 41.0212C20.295 41.4112 28.0537 41.3925 28.1587 41.1975C28.2637 41.0025 28.3725 38.4037 28.1925 38.28C28.0125 38.1562 24.1987 38.2275 24.1987 38.2275C24.1987 38.2275 24.5175 37.485 25.8262 36.3525C27.2625 35.1112 28.4137 33.405 28.1062 31.3875C27.4687 27.2175 23.2687 27.0637 21.45 28.515C19.6762 29.9287 20.0587 32.3662 21.3187 32.3812Z" fill="#9B9B9D"/>
</g>
</svg>
