<svg width="51" height="51" viewBox="0 0 51 51" fill="none" xmlns="http://www.w3.org/2000/svg">
<g id="noto:3rd-place-medal">
<path id="Vector" d="M32.5444 17.2484C32.0623 16.9894 17.862 16.7663 17.5273 17.2484C17.2245 17.6866 17.3958 19.9856 17.5114 20.2606C17.7186 20.7387 22.3046 22.8225 22.3046 22.8225L22.2169 23.7708C22.2169 23.7708 22.5915 23.8664 25.257 23.8664C27.9226 23.8664 28.4485 23.7309 28.4485 23.7309L28.4565 22.8743C28.4565 22.8743 32.5843 20.8662 32.7915 20.5873C32.9668 20.3562 33.0265 17.5073 32.5444 17.2484ZM28.317 20.8821C28.317 20.8821 28.4485 20.2964 28.1736 20.1609C27.8986 20.0215 23.1812 20.0852 22.8066 20.1052C22.4321 20.1251 22.4321 20.7945 22.4321 20.7945L19.4597 19.2645L19.404 18.6947L30.6797 18.7744L30.6399 19.3123L28.317 20.8821Z" fill="#F79429"/>
<path id="Vector_2" d="M11.6777 36.6921C11.6777 46.2387 20.3278 50.2111 26.0693 50.0398C32.7591 49.8406 39.9548 44.7645 39.3612 35.6562C38.8034 27.1097 31.6076 23.1891 25.3202 23.2329C18.0129 23.2887 11.6777 28.3528 11.6777 36.6921Z" fill="#F79429"/>
<path id="Vector_3" d="M25.766 48.5974C25.6664 48.5974 25.5628 48.5974 25.4632 48.5934C22.4749 48.4938 19.5225 47.2348 17.363 45.143C15.052 42.9038 13.785 39.8756 13.8009 36.6204C13.8368 28.6716 20.7855 24.986 25.4991 24.986H25.5389C31.9259 25.0139 37.1693 29.9784 37.3167 36.7081C37.3805 39.7043 36.4242 42.6846 34.0176 45.0513C31.7705 47.2507 28.5192 48.5974 25.766 48.5974ZM25.4911 26.3088C21.2637 26.3088 15.0122 29.7673 14.9962 36.6204C14.9843 41.7443 18.9527 47.0117 25.5628 47.2348C28.0809 47.3145 30.9218 46.3821 33.0136 44.3262C35.1891 42.1866 36.1652 39.3975 36.1214 36.728C36.0258 30.9387 31.2923 26.3327 25.5469 26.3088C25.5349 26.3009 25.503 26.3088 25.4911 26.3088Z" fill="#D25116"/>
<path id="Vector_4" d="M29.8626 33.3532C29.4005 29.3489 24.7387 29.0142 22.8063 30.5522C20.9257 32.0503 21.105 34.1381 22.4238 34.3812C23.4637 34.5724 23.7347 33.7477 24.0375 33.3692C24.7228 32.5205 25.8145 32.4408 26.5277 33.1221C27.3366 33.8991 26.8385 35.7558 25.6233 35.8315C24.7188 35.8873 24.2606 35.8395 24.1451 35.9949C23.9817 36.214 24.0056 37.9392 24.173 38.1305C24.3642 38.3496 25.1292 38.2142 25.7866 38.2381C26.6911 38.2739 27.6513 39.6127 27.0178 40.6167C26.3604 41.6567 24.6112 41.1905 23.9817 40.561C23.149 39.7282 22.3162 40.2064 22.0373 40.5331C21.5991 41.051 21.1329 42.2304 22.7505 43.3779C24.3642 44.5254 29.261 44.7446 30.2491 41.1905C31.1098 38.0867 29.1016 36.8117 29.1016 36.8117C29.1016 36.8117 30.1256 35.6363 29.8626 33.3532Z" fill="#D25116"/>
</g>
</svg>
