<svg width="48" height="48" viewBox="0 0 48 48" fill="none" xmlns="http://www.w3.org/2000/svg">
<path d="M30.6296 16.2337C30.1758 15.99 16.8108 15.78 16.4958 16.2337C16.2108 16.6462 16.3721 18.81 16.4808 19.0687C16.6758 19.5187 20.9696 21.2625 20.9696 21.2625V22.3462C20.9696 22.3462 21.2621 22.4662 23.7671 22.4662C26.2721 22.4662 26.7708 22.3387 26.7708 22.3387L26.7896 21.2962C26.7896 21.2962 30.5171 19.3762 30.7121 19.11C30.8846 18.8887 31.0833 16.4775 30.6296 16.2337ZM26.7521 19.6612C26.7521 19.6612 26.8046 19.1437 26.5458 19.0162C26.2871 18.885 21.8133 18.9075 21.4608 18.9262C21.1083 18.945 21.1083 19.575 21.1083 19.575L18.3071 18.0937L18.2583 17.5987L28.7358 17.655L28.7583 18.3225L26.7521 19.6612Z" fill="#FCC11A"/>
<path d="M10.9912 34.5337C10.9912 43.5187 19.1325 47.2575 24.5362 47.0962C30.8325 46.9087 37.605 42.1312 37.0462 33.5587C36.5212 25.515 29.6625 21.675 23.745 21.72C16.8675 21.7687 10.9912 26.685 10.9912 34.5337Z" fill="#F8932A"/>
<path d="M24.1952 45.4838C24.1014 45.4838 24.0039 45.4838 23.9102 45.48C21.0977 45.3863 18.2402 44.325 16.2077 42.3563C14.0327 40.2488 12.6902 37.5825 12.6827 34.5188C12.6639 26.4713 19.5602 23.5125 23.9964 23.5125H24.0339C30.0452 23.5388 35.2389 28.0313 35.3739 34.365C35.4339 37.185 34.2789 40.17 32.0139 42.3975C29.9027 44.4713 26.7864 45.4838 24.1952 45.4838Z" fill="#FCC11A"/>
<path d="M24.08 41C23.6933 41 23.42 40.9333 23.26 40.8C23.1133 40.6667 23.04 40.4267 23.04 40.08V38.28H17.7C17.2733 38.28 17.06 38.0733 17.06 37.66V36.16C17.06 35.88 17.08 35.68 17.12 35.56C17.1733 35.4267 17.2867 35.26 17.46 35.06L23.32 27.96C23.5067 27.7333 23.6667 27.5867 23.8 27.52C23.9333 27.44 24.1533 27.4 24.46 27.4H26.04C26.4133 27.4 26.68 27.4867 26.84 27.66C27 27.82 27.08 28.0733 27.08 28.42V35.38H28.06C28.4333 35.38 28.6867 35.46 28.82 35.62C28.9667 35.7667 29.04 36.02 29.04 36.38V37.3C29.04 37.6467 28.9667 37.9 28.82 38.06C28.6867 38.2067 28.4333 38.28 28.06 38.28H27.08V40.08C27.08 40.4267 27 40.6667 26.84 40.8C26.6933 40.9333 26.42 41 26.02 41H24.08ZM23.88 35.38V31.74L21.06 35.38H23.88Z" fill="#F8932A"/>
</svg>
