<svg width="72" height="72" viewBox="0 0 72 72" fill="none" xmlns="http://www.w3.org/2000/svg">
<g id="noto:1st-place-medal">
<path id="Vector" d="M45.9449 24.3506C45.2643 23.985 25.2168 23.67 24.7443 24.3506C24.3168 24.9694 24.3786 27.7988 24.5868 28.1644C24.7949 28.53 31.5336 31.6631 31.5336 31.6631L31.528 32.805C31.528 32.805 31.8993 33.6994 35.6568 33.6994C39.4143 33.6994 39.8024 32.94 39.8024 32.94L39.8361 31.7869C39.8361 31.7869 45.7368 28.8394 46.0461 28.5806C46.3611 28.3163 46.6255 24.7163 45.9449 24.3506ZM39.7686 29.0363C39.7686 29.0363 39.7518 28.2488 39.3636 28.0519C38.9755 27.855 32.7261 27.8888 32.1974 27.9169C31.6686 27.945 31.6686 28.89 31.6686 28.89L27.3936 26.8088V26.3925L43.3124 26.505L43.3405 26.9775L39.7686 29.0363Z" fill="#FA912C"/>
<path id="Vector_2" d="M16.3008 51.03C16.3008 64.5075 28.4845 70.5094 36.5845 70.2225C45.517 69.9019 56.2158 62.9381 55.5689 50.0794C54.9558 37.8956 44.707 32.1187 35.8308 32.1806C25.5145 32.2537 16.3008 39.2569 16.3008 51.03Z" fill="#FCC417"/>
<path id="Vector_3" d="M36.2983 67.8769C36.1577 67.8769 36.0115 67.8769 35.8708 67.8713C31.6521 67.7307 27.484 65.9532 24.4352 63C21.1727 59.8388 19.384 55.5638 19.4065 50.9682C19.4571 39.7463 29.2671 34.5432 35.9215 34.5432H35.9777C44.9946 34.5825 52.3971 41.5913 52.6052 51.0919C52.6952 55.3219 50.9627 59.76 47.5652 63.1013C44.3927 66.2119 40.1852 67.8769 36.2983 67.8769ZM35.9102 36.4107C29.9421 36.4107 21.1165 41.2932 21.094 50.9682C21.0771 58.2019 26.6796 65.6382 36.0115 65.9532C39.5665 66.0657 43.2283 64.7044 46.1871 61.7963C49.2583 58.7757 50.9852 54.8832 50.9233 51.1144C50.7883 42.9413 44.1058 36.4388 35.9946 36.405C35.9721 36.405 35.9271 36.4107 35.9102 36.4107Z" fill="#FA912C"/>
<path id="Vector_4" d="M31.4161 43.3237C31.1236 43.7569 31.388 47.5537 31.5623 47.7225C31.8998 48.06 34.4648 46.8506 34.4648 46.8506L34.3692 57.0037C34.3692 57.0037 32.4848 56.9812 32.288 57.0544C31.8998 57.2006 31.9505 61.1156 32.2373 61.3069C32.5242 61.4981 40.2136 61.5994 40.5061 61.2112C40.7986 60.8231 40.7255 57.3975 40.5905 57.24C40.3486 56.9475 38.5092 57.0656 38.5092 57.0656C38.5092 57.0656 38.6667 42.1144 38.6161 41.6362C38.5655 41.1581 38.0367 40.86 37.4067 41.0062C36.7767 41.1525 31.6017 43.0425 31.4161 43.3237Z" fill="#FA912C"/>
</g>
</svg>
