<svg width="70" height="70" viewBox="0 0 70 70" fill="none" xmlns="http://www.w3.org/2000/svg">
<circle cx="35" cy="35" r="35" fill="#CFE6F8"/>
<path d="M39 37C40.6667 37 42.0833 36.4167 43.25 35.25C44.4167 34.0833 45 32.6667 45 31C45 29.3333 44.4167 27.9167 43.25 26.75C42.0833 25.5833 40.6667 25 39 25C37.3333 25 35.9167 25.5833 34.75 26.75C33.5833 27.9167 33 29.3333 33 31C33 32.6667 33.5833 34.0833 34.75 35.25C35.9167 36.4167 37.3333 37 39 37ZM25 43C23.9 43 22.958 42.608 22.174 41.824C21.39 41.04 20.9987 40.0987 21 39V23C21 21.9 21.392 20.958 22.176 20.174C22.96 19.39 23.9013 18.9987 25 19H53C54.1 19 55.042 19.392 55.826 20.176C56.61 20.96 57.0013 21.9013 57 23V39C57 40.1 56.608 41.042 55.824 41.826C55.04 42.61 54.0987 43.0013 53 43H25ZM17 51C15.9 51 14.958 50.608 14.174 49.824C13.39 49.04 12.9987 48.0987 13 47V27C13 26.4333 13.192 25.958 13.576 25.574C13.96 25.19 14.4347 24.9987 15 25C15.5667 25 16.042 25.192 16.426 25.576C16.81 25.96 17.0013 26.4347 17 27V47H49C49.5667 47 50.042 47.192 50.426 47.576C50.81 47.96 51.0013 48.4347 51 49C51 49.5667 50.808 50.042 50.424 50.426C50.04 50.81 49.5653 51.0013 49 51H17ZM25 27C26.1 27 27.042 26.608 27.826 25.824C28.61 25.04 29.0013 24.0987 29 23H25V27ZM53 27V23H49C49 24.1 49.392 25.042 50.176 25.826C50.96 26.61 51.9013 27.0013 53 27ZM25 39H29C29 37.9 28.608 36.958 27.824 36.174C27.04 35.39 26.0987 34.9987 25 35V39ZM49 39H53V35C51.9 35 50.958 35.392 50.174 36.176C49.39 36.96 48.9987 37.9013 49 39Z" fill="#17407E"/>
</svg>
