<svg width="70" height="70" viewBox="0 0 70 70" fill="none" xmlns="http://www.w3.org/2000/svg">
<circle cx="35" cy="35" r="35" fill="#CFE6F8"/>
<path d="M27 45C27.5667 45 28.042 44.808 28.426 44.424C28.81 44.04 29.0013 43.5653 29 43V33C29 32.4333 28.808 31.958 28.424 31.574C28.04 31.19 27.5653 30.9987 27 31C26.4333 31 25.958 31.192 25.574 31.576C25.19 31.96 24.9987 32.4347 25 33V43C25 43.5667 25.192 44.042 25.576 44.426C25.96 44.81 26.4347 45.0013 27 45ZM35 45C35.5667 45 36.042 44.808 36.426 44.424C36.81 44.04 37.0013 43.5653 37 43V27C37 26.4333 36.808 25.958 36.424 25.574C36.04 25.19 35.5653 24.9987 35 25C34.4333 25 33.958 25.192 33.574 25.576C33.19 25.96 32.9987 26.4347 33 27V43C33 43.5667 33.192 44.042 33.576 44.426C33.96 44.81 34.4347 45.0013 35 45ZM43 45C43.5667 45 44.042 44.808 44.426 44.424C44.81 44.04 45.0013 43.5653 45 43V39C45 38.4333 44.808 37.958 44.424 37.574C44.04 37.19 43.5653 36.9987 43 37C42.4333 37 41.958 37.192 41.574 37.576C41.19 37.96 40.9987 38.4347 41 39V43C41 43.5667 41.192 44.042 41.576 44.426C41.96 44.81 42.4347 45.0013 43 45ZM21 53C19.9 53 18.958 52.608 18.174 51.824C17.39 51.04 16.9987 50.0987 17 49V21C17 19.9 17.392 18.958 18.176 18.174C18.96 17.39 19.9013 16.9987 21 17H49C50.1 17 51.042 17.392 51.826 18.176C52.61 18.96 53.0013 19.9013 53 21V49C53 50.1 52.608 51.042 51.824 51.826C51.04 52.61 50.0987 53.0013 49 53H21Z" fill="#17407E"/>
</svg>
