<svg width="70" height="70" viewBox="0 0 70 70" fill="none" xmlns="http://www.w3.org/2000/svg">
<circle cx="35" cy="35" r="35" fill="#CFE6F8"/>
<path d="M46.251 36.488C45.1632 38.3421 43.7298 39.8405 41.9318 41H28.0685C26.2715 39.8405 24.8378 38.3419 23.7486 36.4872C22.5808 34.4985 21.9988 32.3492 22 30.001V30C22 26.3579 23.2521 23.3263 25.7902 20.7882C28.3283 18.2501 31.359 16.9988 34.9994 17H35C38.6422 17 41.6737 18.2521 44.2118 20.7902C46.7499 23.3283 48.0012 26.359 48 29.9994V30C48 32.3489 47.4179 34.4989 46.251 36.488ZM32.174 53.824C31.9163 53.5663 31.7011 53.2917 31.5282 53L37 51C37 51.5648 36.8221 51.9995 36.4098 52.4118C35.9992 52.8224 35.5677 52.9993 35.0089 53H36.998H38.471C38.2979 53.2925 38.0822 53.5678 37.824 53.826C37.04 54.61 36.0987 55.0013 35 55C33.9 55 32.958 54.608 32.174 53.824Z" fill="#17407E" stroke="#17407E" stroke-width="4"/>
</svg>
