<svg width="70" height="70" viewBox="0 0 70 70" fill="none" xmlns="http://www.w3.org/2000/svg">
<circle cx="35" cy="35" r="35" fill="#CFE6F8"/>
<path d="M35.2 53C34.6333 53 34.1587 52.808 33.776 52.424C33.3933 52.04 33.2013 51.5653 33.2 51C33.2 50.7667 33.25 50.5247 33.35 50.274C33.45 50.0233 33.6 49.7987 33.8 49.6L43.05 40.35L41.6 38.9L32.4 48.15C32.2 48.35 31.9833 48.5 31.75 48.6C31.5167 48.7 31.2667 48.75 31 48.75C30.4333 48.75 29.958 48.5587 29.574 48.176C29.19 47.7933 28.9987 47.318 29 46.75C29 46.4167 29.05 46.1413 29.15 45.924C29.25 45.7067 29.3833 45.5153 29.55 45.35L38.8 36.1L37.4 34.7L28.15 43.9C27.95 44.1 27.7333 44.25 27.5 44.35C27.2667 44.45 27 44.5 26.7 44.5C26.1667 44.5 25.7 44.3 25.3 43.9C24.9 43.5 24.7 43.0333 24.7 42.5C24.7 42.2333 24.75 41.9833 24.85 41.75C24.95 41.5167 25.1 41.3 25.3 41.1L34.55 31.85L33.1 30.45L23.9 39.7C23.7333 39.8667 23.5333 40 23.3 40.1C23.0667 40.2 22.7833 40.25 22.45 40.25C21.8833 40.25 21.408 40.058 21.024 39.674C20.64 39.29 20.4487 38.8153 20.45 38.25C20.45 37.9833 20.5 37.7333 20.6 37.5C20.7 37.2667 20.85 37.05 21.05 36.85L32.2 25.7L39.7 33.25C40.0667 33.6167 40.5 33.9087 41 34.126C41.5 34.3433 42 34.4513 42.5 34.45C43.5667 34.45 44.5 34.0747 45.3 33.324C46.1 32.5733 46.5 31.6153 46.5 30.45C46.5 29.9833 46.4167 29.5 46.25 29C46.0833 28.5 45.7833 28.0333 45.35 27.6L36.4 18.65C36.9667 18.1167 37.6 17.708 38.3 17.424C39 17.14 39.7 16.9987 40.4 17C41.2667 17 42.0667 17.142 42.8 17.426C43.5333 17.71 44.2 18.1513 44.8 18.75L53.25 27.25C53.85 27.85 54.292 28.5167 54.576 29.25C54.86 29.9833 55.0013 30.8333 55 31.8C55 32.4667 54.85 33.1413 54.55 33.824C54.25 34.5067 53.8167 35.132 53.25 35.7L36.6 52.4C36.3333 52.6667 36.1 52.8333 35.9 52.9C35.7 52.9667 35.4667 53 35.2 53ZM18.05 37L16.75 35.7C16.1833 35.1667 15.75 34.5333 15.45 33.8C15.15 33.0667 15 32.3 15 31.5C15 30.6333 15.1667 29.8333 15.5 29.1C15.8333 28.3667 16.25 27.75 16.75 27.25L25.2 18.75C25.7333 18.2167 26.3667 17.7913 27.1 17.474C27.8333 17.1567 28.55 16.9987 29.25 17C30.15 17 30.95 17.1253 31.65 17.376C32.35 17.6267 33.0333 18.0847 33.7 18.75L43.95 29C44.15 29.2 44.3 29.4167 44.4 29.65C44.5 29.8833 44.55 30.1333 44.55 30.4C44.55 30.9333 44.35 31.4 43.95 31.8C43.55 32.2 43.0833 32.4 42.55 32.4C42.25 32.4 42 32.358 41.8 32.274C41.6 32.19 41.3833 32.032 41.15 31.8L32.15 22.9L18.05 37Z" fill="#17407E"/>
</svg>
