<svg width="70" height="70" viewBox="0 0 70 70" fill="none" xmlns="http://www.w3.org/2000/svg">
<circle cx="35" cy="35" r="35" fill="#CFE6F8"/>
<path d="M32.5 43.5L28 41.45C27.8 41.35 27.7 41.2 27.7 41C27.7 40.8 27.8 40.65 28 40.55L32.5 38.5L34.55 34C34.65 33.8 34.8 33.7 35 33.7C35.2 33.7 35.35 33.8 35.45 34L37.5 38.5L42 40.55C42.2 40.65 42.3 40.8 42.3 41C42.3 41.2 42.2 41.35 42 41.45L37.5 43.5L35.45 48C35.35 48.2 35.2 48.3 35 48.3C34.8 48.3 34.65 48.2 34.55 48L32.5 43.5ZM21 55C19.9 55 18.958 54.608 18.174 53.824C17.39 53.04 16.9987 52.0987 17 51V23C17 21.9 17.392 20.958 18.176 20.174C18.96 19.39 19.9013 18.9987 21 19H23V17C23 16.4333 23.192 15.958 23.576 15.574C23.96 15.19 24.4347 14.9987 25 15C25.5667 15 26.042 15.192 26.426 15.576C26.81 15.96 27.0013 16.4347 27 17V19H43V17C43 16.4333 43.192 15.958 43.576 15.574C43.96 15.19 44.4347 14.9987 45 15C45.5667 15 46.042 15.192 46.426 15.576C46.81 15.96 47.0013 16.4347 47 17V19H49C50.1 19 51.042 19.392 51.826 20.176C52.61 20.96 53.0013 21.9013 53 23V51C53 52.1 52.608 53.042 51.824 53.826C51.04 54.61 50.0987 55.0013 49 55H21ZM21 51H49V31H21V51Z" fill="#17407E"/>
</svg>
