<svg width="70" height="70" viewBox="0 0 70 70" fill="none" xmlns="http://www.w3.org/2000/svg">
<circle cx="35" cy="35" r="35" fill="#CFE6F8"/>
<path d="M15 37V27C15 25.9 15.392 24.958 16.176 24.174C16.96 23.39 17.9013 22.9987 19 23H27V19C27 17.9 27.392 16.958 28.176 16.174C28.96 15.39 29.9013 14.9987 31 15H39C40.1 15 41.042 15.392 41.826 16.176C42.61 16.96 43.0013 17.9013 43 19V23H51C52.1 23 53.042 23.392 53.826 24.176C54.61 24.96 55.0013 25.9013 55 27V37H41V35C41 34.4333 40.808 33.958 40.424 33.574C40.04 33.19 39.5653 32.9987 39 33H31C30.4333 33 29.958 33.192 29.574 33.576C29.19 33.96 28.9987 34.4347 29 35V37H15ZM31 23H39V19H31V23ZM33 41V37H37V41H33ZM19 53C17.9 53 16.958 52.608 16.174 51.824C15.39 51.04 14.9987 50.0987 15 49V41H29V43C29 43.5667 29.192 44.042 29.576 44.426C29.96 44.81 30.4347 45.0013 31 45H39C39.5667 45 40.042 44.808 40.426 44.424C40.81 44.04 41.0013 43.5653 41 43V41H55V49C55 50.1 54.608 51.042 53.824 51.826C53.04 52.61 52.0987 53.0013 51 53H19Z" fill="#17407E"/>
</svg>
