<svg width="70" height="70" viewBox="0 0 70 70" fill="none" xmlns="http://www.w3.org/2000/svg">
<circle cx="35" cy="35" r="35" fill="#CFE6F8"/>
<path d="M35 47.55L26.7 52.55C26.3333 52.7834 25.95 52.8834 25.55 52.85C25.15 52.8167 24.8 52.6834 24.5 52.45C24.2 52.2167 23.9667 51.9247 23.8 51.574C23.6333 51.2234 23.6 50.832 23.7 50.4L25.9 40.95L18.55 34.6C18.2167 34.3 18.0087 33.958 17.926 33.574C17.8433 33.19 17.868 32.8154 18 32.45C18.1333 32.0834 18.3333 31.7834 18.6 31.55C18.8667 31.3167 19.2333 31.1667 19.7 31.1L29.4 30.25L33.15 21.35C33.3167 20.95 33.5753 20.65 33.926 20.45C34.2767 20.25 34.6347 20.15 35 20.15C35.3667 20.15 35.7247 20.25 36.074 20.45C36.4233 20.65 36.682 20.95 36.85 21.35L40.6 30.25L50.3 31.1C50.7667 31.1667 51.1333 31.3167 51.4 31.55C51.6667 31.7834 51.8666 32.0834 52 32.45C52.1333 32.8167 52.1587 33.192 52.076 33.576C51.9933 33.96 51.7847 34.3014 51.45 34.6L44.1 40.95L46.3 50.4C46.4 50.8334 46.3667 51.2254 46.2 51.576C46.0333 51.9267 45.8 52.218 45.5 52.45C45.2 52.6834 44.85 52.8167 44.45 52.85C44.05 52.8834 43.6667 52.7834 43.3 52.55L35 47.55Z" fill="#17407E"/>
</svg>
