<svg width="72" height="72" viewBox="0 0 72 72" fill="none" xmlns="http://www.w3.org/2000/svg">
<path d="M38.8631 2.38502C38.2556 2.92502 33.5306 12.3019 33.5306 12.3019L30.015 26.4825L43.695 25.2281C43.695 25.2281 55.0744 4.0669 55.305 3.57752C55.7156 2.68877 55.935 2.32315 54.3656 2.32315C52.7963 2.31752 39.4313 1.87877 38.8631 2.38502Z" fill="#176CC7"/>
<path d="M45.945 24.3506C45.2644 23.985 25.2169 23.67 24.7444 24.3506C24.3169 24.9694 24.5588 28.215 24.7219 28.6031C25.0144 29.2781 31.455 31.8938 31.455 31.8938V33.5194C31.455 33.5194 31.8938 33.6994 35.6513 33.6994C39.4088 33.6994 40.1569 33.5081 40.1569 33.5081L40.185 31.9444C40.185 31.9444 45.7763 29.0644 46.0688 28.665C46.3275 28.3331 46.6256 24.7163 45.945 24.3506ZM40.1287 29.4919C40.1287 29.4919 40.2075 28.7156 39.8194 28.5244C39.4313 28.3275 32.7206 28.3613 32.1919 28.3894C31.6631 28.4175 31.6631 29.3625 31.6631 29.3625L27.4613 27.1406L27.3881 26.3981L43.1044 26.4825L43.1381 27.4838L40.1287 29.4919Z" fill="#FCC11A"/>
<path d="M16.4868 51.8006C16.4868 65.2781 28.6987 70.8862 36.8043 70.6444C46.2487 70.3631 56.4074 63.1969 55.5693 50.3381C54.7818 38.2725 44.4937 32.5125 35.6174 32.58C25.3012 32.6531 16.4868 40.0275 16.4868 51.8006Z" fill="#F8932A"/>
<path d="M36.2925 68.2256C36.1519 68.2256 36.0056 68.2256 35.865 68.22C31.6462 68.0794 27.36 66.4875 24.3112 63.5344C21.0487 60.3731 19.035 56.3737 19.0237 51.7781C18.9956 39.7069 29.34 35.2687 35.9944 35.2687H36.0506C45.0675 35.3081 52.8581 42.0469 53.0606 51.5475C53.1506 55.7775 51.4181 60.255 48.0206 63.5962C44.8537 66.7069 40.1794 68.2256 36.2925 68.2256Z" fill="#FCC11A"/>
<path d="M14.3494 2.09249C13.995 2.41874 27.5456 26.55 27.5456 26.55C27.5456 26.55 29.8181 26.8425 34.8919 26.8875C39.9656 26.9325 42.48 26.595 42.48 26.595C42.48 26.595 31.9444 2.33437 31.3144 2.09249C31.005 1.96874 26.8312 1.92374 22.7531 1.87874C18.6694 1.82811 14.6869 1.77749 14.3494 2.09249Z" fill="#2E9DF4"/>
<path d="M36.2081 37.6313C35.1112 37.6313 33.4012 44.8819 32.0568 45.7763C30.7124 46.6706 23.7487 45.8156 23.6699 46.7944C23.5912 47.7731 28.8393 51.8456 29.4524 53.3475C30.0656 54.8494 26.8031 61.5713 27.7031 62.2238C28.5974 62.8763 34.2168 58.1906 36.0899 58.1906C38.0418 58.1906 43.0706 63.1913 43.9087 62.505C44.7918 61.785 41.9568 55.215 42.4012 53.7075C42.8512 52.2 48.9543 48.9825 48.7124 47.52C48.4706 46.0519 41.3831 47.1544 40.0781 45.9338C38.7731 44.7131 37.3893 37.6313 36.2081 37.6313Z" fill="#F8932A"/>
</svg>
