<svg width="72" height="72" viewBox="0 0 72 72" fill="none" xmlns="http://www.w3.org/2000/svg">
<path d="M38.8631 2.38502C38.2556 2.92502 33.5306 12.3019 33.5306 12.3019L30.015 26.4825L43.695 25.2281C43.695 25.2281 55.0744 4.0669 55.305 3.57752C55.7156 2.68877 55.935 2.32315 54.3656 2.32315C52.7963 2.31752 39.4313 1.87877 38.8631 2.38502Z" fill="#176CC7"/>
<path d="M45.945 24.3506C45.2644 23.985 25.2169 23.67 24.7444 24.3506C24.3169 24.9694 24.5588 28.215 24.7219 28.6031C25.0144 29.2781 31.4888 32.22 31.4888 32.22L31.365 33.5588C31.365 33.5588 31.8938 33.6938 35.6569 33.6938C39.42 33.6938 40.1625 33.5025 40.1625 33.5025L40.1737 32.2931C40.1737 32.2931 46.0013 29.4581 46.2938 29.0644C46.5413 28.7381 46.6256 24.7163 45.945 24.3506ZM39.9769 29.4806C39.9769 29.4806 40.1625 28.6538 39.7744 28.4625C39.3863 28.2656 32.7263 28.3556 32.1975 28.3838C31.6688 28.4119 31.6688 29.3569 31.6688 29.3569L27.3938 26.8088V26.3925L43.3125 26.505L43.3406 26.9775L39.9769 29.4806Z" fill="#CECDD2"/>
<path d="M16.2957 51.6881C16.2957 65.1656 28.6988 70.8863 36.8044 70.6444C46.2488 70.3631 56.2163 63.1969 55.5694 50.3381C54.9563 38.1544 44.6232 32.7375 35.7469 32.7994C25.4307 32.8781 16.2957 39.915 16.2957 51.6881Z" fill="#CECDD2"/>
<path d="M36.2982 68.1356C36.1575 68.1356 36.0113 68.1356 35.8707 68.13C31.6519 67.9894 27.4838 66.2119 24.435 63.2588C21.1725 60.0975 19.3838 55.8225 19.4063 51.2269C19.4569 40.005 29.2669 34.8019 35.9213 34.8019H35.9775C44.9944 34.8413 52.3969 41.85 52.605 51.3506C52.695 55.5806 50.9625 60.0188 47.565 63.36C44.3925 66.4706 40.185 68.1356 36.2982 68.1356ZM35.91 36.6694C29.9419 36.6694 21.1163 41.5519 21.0938 51.2269C21.0769 58.4606 26.6794 65.8969 36.0113 66.2119C39.5663 66.3244 43.2282 64.9631 46.1869 62.055C49.2582 59.0344 50.985 55.1419 50.9232 51.3731C50.7769 43.2 44.0944 36.6975 35.9832 36.6581C35.9719 36.6581 35.9269 36.6694 35.91 36.6694Z" fill="#9B9B9D"/>
<path d="M14.3494 2.09249C13.995 2.41874 27.5456 26.55 27.5456 26.55C27.5456 26.55 29.8181 26.8425 34.8919 26.8875C39.9656 26.9325 42.48 26.595 42.48 26.595C42.48 26.595 31.9444 2.33437 31.3144 2.09249C31.005 1.96874 26.8312 1.92374 22.7531 1.87874C18.6694 1.82811 14.6869 1.77749 14.3494 2.09249Z" fill="#2E9DF4"/>
<path d="M31.9781 48.5719C32.5631 48.5775 33.0862 47.7844 33.57 47.3006C34.5994 46.2656 35.6794 45.4444 36.9112 46.5581C39.9375 49.3087 33.8625 52.0987 31.5562 55.9125C29.835 58.7587 29.4862 60.9469 29.9644 61.5319C30.4425 62.1169 42.0806 62.0887 42.2381 61.7962C42.3956 61.5037 42.5587 57.6056 42.2887 57.42C42.0187 57.2344 36.2981 57.3412 36.2981 57.3412C36.2981 57.3412 36.7762 56.2275 38.7394 54.5287C40.8937 52.6669 42.6206 50.1075 42.1594 47.0812C41.2031 40.8262 34.9031 40.5956 32.175 42.7725C29.5144 44.8931 30.0881 48.5494 31.9781 48.5719Z" fill="#9B9B9D"/>
</svg>
