<svg width="72" height="72" viewBox="0 0 72 72" fill="none" xmlns="http://www.w3.org/2000/svg">
<path d="M38.8631 2.38499C38.2556 2.92499 33.5306 12.3019 33.5306 12.3019L30.015 26.4825L43.695 25.2281C43.695 25.2281 55.0744 4.06687 55.305 3.57749C55.7156 2.68874 55.935 2.32312 54.3656 2.32312C52.7963 2.31749 39.4313 1.87874 38.8631 2.38499Z" fill="#176CC7"/>
<path d="M45.945 24.3506C45.2644 23.985 25.2169 23.67 24.7444 24.3506C24.3169 24.9694 24.5588 28.215 24.7219 28.6031C25.0144 29.2781 31.4888 32.22 31.4888 32.22L31.365 33.5588C31.365 33.5588 31.8937 33.6938 35.6569 33.6938C39.42 33.6938 40.1625 33.5025 40.1625 33.5025L40.1737 32.2931C40.1737 32.2931 46.0013 29.4581 46.2938 29.0644C46.5413 28.7381 46.6256 24.7163 45.945 24.3506ZM39.9769 29.4806C39.9769 29.4806 40.1625 28.6538 39.7744 28.4625C39.3862 28.2656 32.7263 28.3556 32.1975 28.3838C31.6688 28.4119 31.6688 29.3569 31.6688 29.3569L27.4725 27.1969L27.3938 26.3925L43.3125 26.505L43.2563 27.2644L39.9769 29.4806Z" fill="#F79429"/>
<path d="M16.4869 51.8006C16.4869 65.2781 28.6988 70.8862 36.8044 70.6444C46.2488 70.3631 56.4075 63.1969 55.5694 50.3381C54.7819 38.2725 44.6231 32.7375 35.7469 32.7994C25.4306 32.8781 16.4869 40.0275 16.4869 51.8006Z" fill="#F79429"/>
<path d="M36.3769 68.6081C36.2363 68.6081 36.09 68.6081 35.9494 68.6025C31.7306 68.4619 27.5625 66.6844 24.5138 63.7313C21.2513 60.57 19.4625 56.295 19.485 51.6994C19.5356 40.4775 29.3456 35.2744 36 35.2744H36.0563C45.0731 35.3138 52.4756 42.3225 52.6838 51.8231C52.7738 56.0531 51.4238 60.2606 48.0263 63.6019C44.8538 66.7069 40.2638 68.6081 36.3769 68.6081ZM35.9888 37.1419C30.0206 37.1419 21.195 42.0244 21.1725 51.6994C21.1556 58.9331 26.7581 66.3694 36.09 66.6844C39.645 66.7969 43.6556 65.4806 46.6088 62.5781C49.68 59.5575 51.0581 55.62 50.9963 51.8513C50.8613 43.6781 44.1788 37.1756 36.0675 37.1419C36.0506 37.1306 36.0056 37.1419 35.9888 37.1419Z" fill="#D25116"/>
<path d="M14.3494 2.09249C13.995 2.41874 27.5456 26.55 27.5456 26.55C27.5456 26.55 29.8181 26.8425 34.8919 26.8875C39.9656 26.9325 42.48 26.595 42.48 26.595C42.48 26.595 31.9444 2.33437 31.3144 2.09249C31.005 1.96874 26.8312 1.92374 22.7531 1.87874C18.6694 1.82811 14.6869 1.77749 14.3494 2.09249Z" fill="#2E9DF4"/>
<path d="M42.1593 47.0869C41.5068 41.4337 34.9256 40.9613 32.1975 43.1325C29.5425 45.2475 29.7956 48.195 31.6575 48.5381C33.1256 48.8081 33.5081 47.6437 33.9356 47.1094C34.9031 45.9112 36.4444 45.7987 37.4512 46.7606C38.5931 47.8575 37.89 50.4787 36.1743 50.5856C34.8975 50.6644 34.2506 50.5969 34.0875 50.8162C33.8568 51.1256 33.8906 53.5612 34.1268 53.8312C34.3968 54.1406 35.4769 53.9494 36.405 53.9831C37.6818 54.0337 39.0375 55.9237 38.1431 57.3412C37.215 58.8094 34.7456 58.1512 33.8568 57.2625C32.6812 56.0869 31.5056 56.7619 31.1119 57.2231C30.4931 57.9544 29.835 59.6194 32.1187 61.2394C34.3968 62.8594 41.31 63.1687 42.705 58.1512C43.92 53.7694 41.085 51.9694 41.085 51.9694C41.085 51.9694 42.5306 50.31 42.1593 47.0869Z" fill="#D25116"/>
</svg>
