<svg width="72" height="72" viewBox="0 0 72 72" fill="none" xmlns="http://www.w3.org/2000/svg">
<path d="M38.8631 2.38502C38.2556 2.92502 33.5306 12.3019 33.5306 12.3019L30.015 26.4825L43.695 25.2281C43.695 25.2281 55.0744 4.0669 55.305 3.57752C55.7156 2.68877 55.935 2.32315 54.3656 2.32315C52.7963 2.31752 39.4313 1.87877 38.8631 2.38502Z" fill="#176CC7"/>
<path d="M45.945 24.3506C45.2644 23.985 25.2169 23.67 24.7444 24.3506C24.3169 24.9694 24.3788 27.7988 24.5869 28.1644C24.795 28.53 31.5338 31.6631 31.5338 31.6631L31.5281 32.805C31.5281 32.805 31.8994 33.6994 35.6569 33.6994C39.4144 33.6994 39.8025 32.94 39.8025 32.94L39.8363 31.7869C39.8363 31.7869 45.7369 28.8394 46.0463 28.5806C46.3613 28.3163 46.6256 24.7163 45.945 24.3506ZM39.7688 29.0363C39.7688 29.0363 39.7519 28.2488 39.3638 28.0519C38.9756 27.855 32.7263 27.8888 32.1975 27.9169C31.6688 27.945 31.6688 28.89 31.6688 28.89L27.3938 26.8088V26.3925L43.3125 26.505L43.3406 26.9775L39.7688 29.0363Z" fill="#FCC417"/>
<path d="M16.3013 51.03C16.3013 64.5075 28.485 70.5094 36.585 70.2225C45.5175 69.9019 56.2163 62.9381 55.5694 50.0794C54.9563 37.8956 44.7075 32.1187 35.8313 32.1806C25.515 32.2537 16.3013 39.2569 16.3013 51.03Z" fill="#FCC417"/>
<path d="M36.2981 67.8769C36.1575 67.8769 36.0113 67.8769 35.8706 67.8713C31.6519 67.7307 27.4838 65.9532 24.435 63C21.1725 59.8388 19.3838 55.5638 19.4063 50.9682C19.4569 39.7463 29.2669 34.5432 35.9213 34.5432H35.9775C44.9944 34.5825 52.3969 41.5913 52.605 51.0919C52.695 55.3219 50.9625 59.76 47.565 63.1013C44.3925 66.2119 40.185 67.8769 36.2981 67.8769ZM35.91 36.4107C29.9419 36.4107 21.1163 41.2932 21.0938 50.9682C21.0769 58.2019 26.6794 65.6382 36.0113 65.9532C39.5663 66.0657 43.2281 64.7044 46.1869 61.7963C49.2582 58.7757 50.985 54.8832 50.9231 51.1144C50.7881 42.9413 44.1056 36.4388 35.9944 36.405C35.9719 36.405 35.9269 36.4107 35.91 36.4107Z" fill="#FA912C"/>
<path d="M31.4156 43.3237C31.1231 43.7569 31.3875 47.5537 31.5619 47.7225C31.8994 48.06 34.4644 46.8506 34.4644 46.8506L34.3687 57.0037C34.3687 57.0037 32.4844 56.9812 32.2875 57.0544C31.8994 57.2006 31.95 61.1156 32.2369 61.3069C32.5237 61.4981 40.2131 61.5994 40.5056 61.2112C40.7981 60.8231 40.725 57.3975 40.59 57.24C40.3481 56.9475 38.5087 57.0656 38.5087 57.0656C38.5087 57.0656 38.6662 42.1144 38.6156 41.6362C38.565 41.1581 38.0362 40.86 37.4062 41.0062C36.7762 41.1525 31.6012 43.0425 31.4156 43.3237Z" fill="#FA912C"/>
<path d="M14.3494 2.09249C13.995 2.41874 27.5456 26.55 27.5456 26.55C27.5456 26.55 29.8181 26.8425 34.8919 26.8875C39.9656 26.9325 42.48 26.595 42.48 26.595C42.48 26.595 31.9444 2.33437 31.3144 2.09249C31.005 1.96874 26.8312 1.92374 22.7531 1.87874C18.6694 1.82811 14.6869 1.77749 14.3494 2.09249Z" fill="#2E9DF4"/>
</svg>
